<svg width="70" height="70" viewBox="0 0 70 70" fill="none" xmlns="http://www.w3.org/2000/svg">
<path d="M6.12402 28.0612L35.031 3.74463L64 28.0612L41.2963 58.457L20.9497 58.0228L6.12402 28.0612Z" fill="#4B6FB5"/>
<path d="M6.12402 28.0612L35.031 3.74463L64 28.0612L41.2963 58.457L20.9497 58.0228L6.12402 28.0612Z" fill="#F1BD39"/>
<path d="M54.075 63.1712H15.6771C14.9327 63.1712 14.2504 62.5509 14.2504 61.7445V4.42674C14.2504 3.68235 14.8707 3 15.6771 3H54.013C54.7574 3 55.4397 3.62032 55.4397 4.42674V61.8065C55.4397 62.5509 54.8194 63.1712 54.075 63.1712Z" fill="white" stroke="#DADADA" stroke-width="0.2" stroke-miterlimit="10"/>
<path opacity="0.2" d="M50.7874 8.45898H18.9649C18.7788 8.45898 18.6548 8.58305 18.6548 8.76915V9.38947C18.6548 9.57556 18.7788 9.69963 18.9649 9.69963H50.7254C50.9115 9.69963 51.0356 9.57556 51.0356 9.38947V8.76915C51.0976 8.58305 50.9115 8.45898 50.7874 8.45898Z" fill="#020203"/>
<path opacity="0.2" d="M50.7874 12.4912H18.9649C18.7788 12.4912 18.6548 12.6153 18.6548 12.8014V13.4217C18.6548 13.6078 18.7788 13.7319 18.9649 13.7319H50.7254C50.9115 13.7319 51.0356 13.6078 51.0356 13.4217V12.8014C51.0976 12.6153 50.9115 12.4912 50.7874 12.4912Z" fill="#020203"/>
<path opacity="0.2" d="M50.7874 16.585H18.9649C18.7788 16.585 18.6548 16.709 18.6548 16.8951V17.5154C18.6548 17.7015 18.7788 17.8256 18.9649 17.8256H50.7254C50.9115 17.8256 51.0356 17.7015 51.0356 17.5154V16.8951C51.0976 16.709 50.9115 16.585 50.7874 16.585Z" fill="#020203"/>
<path opacity="0.2" d="M50.7874 20.6792H18.9649C18.7788 20.6792 18.6548 20.8033 18.6548 20.9894V21.6097C18.6548 21.7958 18.7788 21.9198 18.9649 21.9198H50.7254C50.9115 21.9198 51.0356 21.7958 51.0356 21.6097V20.9894C51.0976 20.8033 50.9115 20.6792 50.7874 20.6792Z" fill="#020203"/>
<path opacity="0.2" d="M50.7874 24.7114H18.9649C18.7788 24.7114 18.6548 24.8355 18.6548 25.0216V25.6419C18.6548 25.828 18.7788 25.9521 18.9649 25.9521H50.7254C50.9115 25.9521 51.0356 25.828 51.0356 25.6419V25.0216C51.0976 24.8975 50.9115 24.7114 50.7874 24.7114Z" fill="#020203"/>
<path opacity="0.2" d="M50.7874 28.8057H18.9649C18.7788 28.8057 18.6548 28.9297 18.6548 29.1158V29.7361C18.6548 29.9222 18.7788 30.0463 18.9649 30.0463H50.7254C50.9115 30.0463 51.0356 29.9222 51.0356 29.7361V29.1158C51.0976 28.9297 50.9115 28.8057 50.7874 28.8057Z" fill="#020203"/>
<path opacity="0.2" d="M50.7874 32.8999H18.9649C18.7788 32.8999 18.6548 33.024 18.6548 33.2101V33.8304C18.6548 34.0165 18.7788 34.1405 18.9649 34.1405H50.7254C50.9115 34.1405 51.0356 34.0165 51.0356 33.8304V33.2101C51.0976 33.024 50.9115 32.8999 50.7874 32.8999Z" fill="#020203"/>
<path opacity="0.2" d="M50.7874 36.9937H18.9649C18.7788 36.9937 18.6548 37.1177 18.6548 37.3038V37.9241C18.6548 38.1102 18.7788 38.2343 18.9649 38.2343H50.7254C50.9115 38.2343 51.0356 38.1102 51.0356 37.9241V37.3038C51.0976 37.1177 50.9115 36.9937 50.7874 36.9937Z" fill="#020203"/>
<path opacity="0.2" d="M50.7874 41.0259H18.9649C18.7788 41.0259 18.6548 41.1499 18.6548 41.336V41.9564C18.6548 42.1425 18.7788 42.2665 18.9649 42.2665H50.7254C50.9115 42.2665 51.0356 42.1425 51.0356 41.9564V41.336C51.0976 41.1499 50.9115 41.0259 50.7874 41.0259Z" fill="#020203"/>
<path d="M36.5818 49.214L36.3958 49.152C35.8375 48.8418 35.0931 48.8418 34.5348 49.152L33.7284 49.5862L6 28.061V63.6055C6 64.66 6.86845 65.4664 7.923 65.4664H62.2632C63.3177 65.4664 63.814 64.66 63.814 63.6055V28.061L36.5818 49.214Z" fill="#4B6FB5"/>
<path d="M36.5818 49.214L36.3958 49.152C35.8375 48.8418 35.0931 48.8418 34.5348 49.152L33.7284 49.5862L6 28.061V63.6055C6 64.66 6.86845 65.4664 7.923 65.4664H62.2632C63.3177 65.4664 63.814 64.66 63.814 63.6055V28.061L36.5818 49.214Z" fill="#F39200"/>
<path opacity="0.2" d="M32.5499 48.6558L33.7905 49.5862L14.1263 60.752L32.5499 48.6558Z" fill="#020203"/>
<path opacity="0.2" d="M58.045 61.1863L36.5819 49.2761L37.5744 48.4697L58.045 61.1863Z" fill="#020203"/>
</svg>
