<svg width="70" height="70" viewBox="0 0 70 70" fill="none" xmlns="http://www.w3.org/2000/svg">
<path d="M66.9997 33.3334C66.8886 48.8889 54.222 61.4445 38.6665 61.3889C23.111 61.2778 10.5555 48.6112 10.611 33.0557C10.7221 17.5001 23.3888 4.94463 38.9443 5.00018C54.4998 5.11129 67.0553 17.7779 66.9997 33.3334Z" fill="#F39200"/>
<path d="M61.8888 33.3332C61.8333 46.111 51.4444 56.3887 38.6667 56.3332C25.8889 56.2776 15.6112 45.8887 15.6667 33.111C15.7223 20.3333 26.1111 10.0555 38.8889 10.1111C51.6666 10.1666 61.9444 20.5555 61.8888 33.3332Z" fill="white"/>
<path d="M38.6664 12.0557L38.6108 16.2779" stroke="#3A3F57" stroke-width="1.72038" stroke-miterlimit="10" stroke-linecap="round" stroke-linejoin="round"/>
<path d="M38.4446 50.5557V54.7779" stroke="#3A3F57" stroke-width="1.72038" stroke-miterlimit="10" stroke-linecap="round" stroke-linejoin="round"/>
<path d="M17.1667 33.2778L21.389 33.3334" stroke="#3A3F57" stroke-width="1.72038" stroke-miterlimit="10" stroke-linecap="round" stroke-linejoin="round"/>
<path d="M55.6665 33.5L59.9443 33.5556" stroke="#3A3F57" stroke-width="1.72038" stroke-miterlimit="10" stroke-linecap="round" stroke-linejoin="round"/>
<path d="M23.4446 18.2778L26.4446 21.2778" stroke="#3A3F57" stroke-width="1.72038" stroke-miterlimit="10" stroke-linecap="round" stroke-linejoin="round"/>
<path d="M50.6665 45.5557L53.6109 48.5557" stroke="#3A3F57" stroke-width="1.72038" stroke-miterlimit="10" stroke-linecap="round" stroke-linejoin="round"/>
<path d="M23.7778 48.8886L26.7223 45.833" stroke="#3A3F57" stroke-width="1.72038" stroke-miterlimit="10" stroke-linecap="round" stroke-linejoin="round"/>
<path d="M50.3889 20.9999L53.2778 17.9443" stroke="#3A3F57" stroke-width="1.72038" stroke-miterlimit="10" stroke-linecap="round" stroke-linejoin="round"/>
<path d="M39.5555 32.8888L38.9444 22.7222L38.2222 32.8888H39.5555Z" fill="#3C3C3B"/>
<path d="M38.8889 32.5557L22.7778 33.1112L38.8889 33.8334V32.5557Z" fill="#3C3C3B"/>
<path d="M40.5 35.8889L40.2222 36.0556L30.2778 18.6668L30.5001 18.5557L40.5 35.8889Z" fill="#3A3F57"/>
<path d="M40.2222 33.1667C40.2222 33.8889 39.6111 34.5 38.8333 34.5C38.1111 34.5 37.5 33.8889 37.5 33.1112C37.5 32.3889 38.1111 31.7778 38.8889 31.7778C39.6667 31.8334 40.2778 32.4445 40.2222 33.1667Z" fill="#3C3C3B"/>
<path d="M9.38901 58.7221H17.2779V62.111H4.94458V60.7221C4.94458 59.7777 5.11125 58.9443 5.44458 58.1666C5.72236 57.3888 6.11124 56.7221 6.61124 56.111C7.11124 55.4999 7.61124 54.9999 8.22235 54.4999C8.7779 54.0555 9.33346 53.611 9.83345 53.2777C10.389 52.8888 10.8335 52.4999 11.2779 52.1666C11.6668 51.8333 12.0557 51.4444 12.3334 51.111C12.6112 50.7777 12.8334 50.3888 12.9446 50.0555C13.0557 49.7221 13.1668 49.3333 13.1668 48.8888C13.1668 48.111 12.9446 47.4999 12.5001 47.111C12.0557 46.7222 11.389 46.4999 10.4446 46.4999C8.83346 46.4999 7.33346 47.111 5.88902 48.3888V44.7777C7.50013 43.7222 9.33346 43.2222 11.3335 43.2222C12.2779 43.2222 13.1112 43.3333 13.8334 43.6111C14.5557 43.8333 15.2223 44.2222 15.7223 44.6666C16.2223 45.1111 16.6112 45.6666 16.889 46.3333C17.1668 46.9999 17.2779 47.7222 17.2779 48.4999C17.2779 49.3333 17.1668 50.111 16.889 50.7777C16.6112 51.4444 16.2779 52.0555 15.8334 52.611C15.389 53.1666 14.889 53.6666 14.3334 54.111C13.7779 54.5555 13.1668 54.9999 12.5557 55.4444C12.1668 55.7221 11.7223 56.0555 11.3335 56.3332C10.9446 56.611 10.6112 56.8888 10.3335 57.1666C10.0557 57.4443 9.83345 57.7221 9.61123 57.9999C9.50012 58.2221 9.38901 58.4999 9.38901 58.7221Z" fill="#3A3F57"/>
<path d="M31.3886 43.5557V55.2223H33.6108V58.3334H31.3886V62.1112H27.6664V58.3334H19.6108V55.1667C20.3331 54.389 21.0553 53.5001 21.8331 52.5556C22.6108 51.6112 23.3331 50.6112 24.0553 49.6112C24.7775 48.6112 25.4442 47.6112 26.0553 46.5557C26.6664 45.5557 27.2219 44.5557 27.6108 43.6112H31.3886V43.5557ZM23.2775 55.2779H27.7219V48.7779C27.4442 49.3334 27.1108 49.889 26.7219 50.5001C26.3886 51.0556 25.9997 51.6668 25.6108 52.1667C25.2219 52.7223 24.833 53.2779 24.4442 53.7779C23.9997 54.3334 23.6108 54.7779 23.2775 55.2779Z" fill="#3A3F57"/>
<path d="M33.611 53.2778H33.3888V43.5556C33.3888 42.4445 32.4999 41.5556 31.3888 41.5556H27.611C26.8333 41.5556 26.111 42.0001 25.8333 42.7223C25.4444 43.5556 24.9444 44.5 24.3888 45.4445C23.7777 46.4445 23.1666 47.3889 22.4444 48.3889C21.7222 49.3889 20.9999 50.3334 20.2777 51.2222C19.5555 52.1667 18.8333 53 18.1111 53.7778C17.7777 54.1667 17.6111 54.6111 17.6111 55.1111V56.7778C17.5 56.7778 17.3888 56.7222 17.2777 56.7222H14.1666C14.6666 56.3889 15.1666 56 15.6111 55.6111C16.2777 55.0556 16.8888 54.4445 17.4444 53.8334C18 53.1111 18.4444 52.3334 18.7777 51.5C19.1111 50.6111 19.3333 49.6111 19.3333 48.5C19.3333 47.4445 19.1666 46.4445 18.7777 45.5556C18.3888 44.6112 17.8333 43.8334 17.0555 43.1667C16.3333 42.5556 15.4444 42.0556 14.4444 41.7223C13.5 41.3889 12.4444 41.2778 11.2778 41.2778C8.88887 41.2778 6.66666 41.8889 4.72222 43.1667C4.16666 43.5556 3.83333 44.1667 3.83333 44.8334V48.4445C3.83333 49.2223 4.27777 49.9445 4.99999 50.2223C5.72221 50.5556 6.55555 50.4445 7.1111 49.8889C8.22221 48.9445 9.27776 48.5 10.3889 48.5C10.8333 48.5 11 48.5556 11.1111 48.6111C11.1111 48.6667 11.1666 48.7778 11.1666 48.9445C11.1666 49.1111 11.1666 49.2223 11.1111 49.3889C11.0555 49.5556 10.9444 49.7223 10.7778 49.9445C10.5555 50.2223 10.3333 50.4445 9.99998 50.7222C9.66665 51.0556 9.2222 51.3889 8.7222 51.7222C8.16665 52.1111 7.6111 52.5556 6.99999 53.0556C6.33332 53.6111 5.66666 54.2222 5.1111 54.9445C4.5 55.6667 4 56.5556 3.61111 57.4445C3.16667 58.4444 3 59.5556 3 60.7778V62.1667C3 63.2778 3.88889 64.1667 4.99999 64.1667H17.3333C18.4444 64.1667 19.3333 63.2778 19.3333 62.1667V60.3333C19.4444 60.3333 19.5555 60.3889 19.6666 60.3889H25.7777V62.2222C25.7777 63.3333 26.6666 64.2222 27.7777 64.2222H31.4999C32.611 64.2222 33.4999 63.3333 33.4999 62.2222V60.3889H33.7221C34.8332 60.3889 35.7221 59.5 35.7221 58.3889V55.3333C35.611 54.1667 34.7221 53.2778 33.611 53.2778Z" fill="white"/>
<path d="M9.38901 59.0561H17.2779V62.445H4.94458V61.0561C4.94458 60.1117 5.11125 59.2783 5.44458 58.5006C5.77791 57.7228 6.1668 57.0561 6.6668 56.445C7.1668 55.8339 7.66679 55.3339 8.2779 54.8339C8.83346 54.3895 9.38901 53.945 9.88901 53.6117C10.4446 53.2228 10.889 52.8339 11.3335 52.5006C11.7223 52.1672 12.1112 51.7783 12.389 51.445C12.6668 51.1117 12.889 50.7228 13.0001 50.3895C13.1112 50.0561 13.2223 49.6672 13.2223 49.2228C13.2223 48.445 13.0001 47.8339 12.5557 47.445C12.1112 47.0561 11.4446 46.8339 10.5001 46.8339C8.88901 46.8339 7.38902 47.445 5.94458 48.7228V45.1117C7.55568 44.0561 9.38901 43.5562 11.389 43.5562C12.3334 43.5562 13.1668 43.6673 13.889 43.945C14.6112 44.1673 15.2779 44.5561 15.7779 45.0006C16.2779 45.445 16.6668 46.0006 16.9445 46.6673C17.2223 47.3339 17.3334 48.0561 17.3334 48.8339C17.3334 49.6672 17.2223 50.445 16.9445 51.1117C16.6668 51.7783 16.3334 52.3895 15.889 52.945C15.4445 53.5006 14.9446 54.0006 14.389 54.445C13.8334 54.8895 13.2223 55.3339 12.6112 55.7783C12.2223 56.0561 11.7779 56.3894 11.389 56.6672C11.0001 56.945 10.6668 57.2228 10.389 57.5006C10.1112 57.7783 9.88901 58.0561 9.66679 58.3339C9.50012 58.5561 9.38901 58.7783 9.38901 59.0561Z" fill="#2A2D3F"/>
<path d="M31.3886 43.8895V55.5562H33.6108V58.6117H31.3886V62.3895H27.6664V58.6117H19.6108V55.3895C20.3331 54.6117 21.0553 53.7228 21.8331 52.7784C22.6108 51.834 23.3331 50.834 24.0553 49.834C24.7775 48.834 25.4442 47.834 26.0553 46.7784C26.6664 45.7784 27.2219 44.7784 27.6108 43.834H31.3886V43.8895ZM23.2775 55.5562H27.7219V49.1117C27.4442 49.6673 27.1108 50.2229 26.7219 50.834C26.3886 51.3895 25.9997 51.9451 25.6108 52.5006C25.2219 53.0562 24.833 53.6117 24.4442 54.1117C23.9997 54.6117 23.6108 55.1117 23.2775 55.5562Z" fill="#2A2D3F"/>
</svg>
