<svg width="54" height="50" viewBox="0 0 54 50" fill="none" xmlns="http://www.w3.org/2000/svg">
<g clip-path="url(#clip0_134_18)">
<path d="M3.99565 37.278V37.278C2.89348 37.278 2 36.3846 2 35.2824V17.9824C2 16.6377 3.09009 15.5476 4.43478 15.5476H47.4609C48.8056 15.5476 49.8956 16.6377 49.8956 17.9824V34.8433C49.8956 36.188 48.8056 37.278 47.4609 37.278H38.8087" stroke="#EA5932" stroke-width="2.43478"/>
<path d="M5.10449 15.3261V14.4348C5.10449 13.0901 6.19458 12 7.53927 12H41.248M50.1175 33.7304H50.5654C51.9101 33.7304 53.0001 32.6403 53.0001 31.2956V14.4348C53.0001 13.0901 51.9101 12 50.5654 12H47.1241" stroke="#EA5932" stroke-width="2.43478" stroke-linecap="round"/>
<path d="M12.8651 27.5217C17.6412 27.5217 21.5129 26.3304 21.5129 24.8608C21.5129 23.3913 17.6412 22.2 12.8651 22.2C8.08905 22.2 4.21729 23.3913 4.21729 24.8608C4.21729 26.3304 8.08905 27.5217 12.8651 27.5217Z" stroke="#EA5932" stroke-width="2.43478" stroke-miterlimit="10" stroke-linejoin="round"/>
<path d="M30.161 35.0608C34.9371 35.0608 38.8088 33.8694 38.8088 32.3999C38.8088 30.9303 34.9371 29.739 30.161 29.739C25.3849 29.739 21.5132 30.9303 21.5132 32.3999C21.5132 33.8694 25.3849 35.0608 30.161 35.0608Z" stroke="#EA5932" stroke-width="2.43478" stroke-miterlimit="10" stroke-linejoin="round"/>
<path d="M4.21729 24.8608V29.0351C4.21729 29.0351 5.83875 31.513 13.0453 31.513C20.2518 31.513 21.5129 28.7066 21.5129 28.7066V24.8608" stroke="#EA5932" stroke-width="2.43478" stroke-miterlimit="10" stroke-linejoin="round"/>
<path d="M21.5132 32.3999V36.5742C21.5132 36.5742 23.1347 39.0521 30.3412 39.0521C37.5477 39.0521 38.8088 36.2456 38.8088 36.2456V32.3999" stroke="#EA5932" stroke-width="2.43478" stroke-miterlimit="10" stroke-linejoin="round"/>
<path d="M4.21729 28.8521V33.0263C4.21729 33.0263 5.83875 35.5042 13.0453 35.5042C20.2518 35.5042 21.5129 32.6978 21.5129 32.6978V28.8521" stroke="#EA5932" stroke-width="2.43478" stroke-miterlimit="10" stroke-linejoin="round"/>
<path d="M21.5132 36.3914V40.5656C21.5132 40.5656 23.1347 43.0435 30.3412 43.0435C37.5477 43.0435 38.8088 40.2371 38.8088 40.2371V36.3914" stroke="#EA5932" stroke-width="2.43478" stroke-miterlimit="10" stroke-linejoin="round"/>
<path d="M4.21729 32.8435V37.0178C4.21729 37.0178 5.83875 39.4957 13.0453 39.4957C20.2518 39.4957 21.5129 36.6892 21.5129 36.6892V32.8435" stroke="#EA5932" stroke-width="2.43478" stroke-miterlimit="10" stroke-linejoin="round"/>
<path d="M4.21729 36.8347V41.009C4.21729 41.009 5.83875 43.4869 13.0453 43.4869C20.2518 43.4869 21.5129 40.6804 21.5129 40.6804V36.8347" stroke="#EA5932" stroke-width="2.43478" stroke-miterlimit="10" stroke-linejoin="round"/>
<path d="M26.8347 22.2L26.8347 29.7391" stroke="#EA5932" stroke-width="1.82609" stroke-linecap="round"/>
<path fill-rule="evenodd" clip-rule="evenodd" d="M30.0299 30.0719C30.0382 29.9864 30.0424 29.8991 30.0424 29.8101C30.0424 29.3457 29.942 28.9504 29.7412 28.6241C29.5404 28.2853 29.2204 27.9967 28.7811 27.7582C28.3545 27.5198 27.7835 27.3064 27.0681 27.1182L26.4846 26.9676C25.97 26.8296 25.6061 26.6915 25.3928 26.5535C25.192 26.4029 25.0916 26.1958 25.0916 25.9323C25.0916 25.6311 25.2171 25.3926 25.4681 25.217C25.7316 25.0287 26.0893 24.9346 26.5411 24.9346C26.9677 24.9346 27.3693 24.9911 27.7458 25.104C27.9711 25.1641 28.2211 25.2556 28.4958 25.3786C28.8284 25.5275 29.2267 25.4172 29.408 25.1011C29.5923 24.7799 29.4841 24.3659 29.1473 24.212C28.8094 24.0577 28.474 23.9409 28.1411 23.8616C27.6266 23.7236 27.087 23.6545 26.5222 23.6545C25.9324 23.6545 25.399 23.7549 24.9222 23.9557C24.4578 24.1565 24.0939 24.4389 23.8304 24.8028C23.5668 25.1542 23.4351 25.5621 23.4351 26.0264C23.4351 26.6413 23.6358 27.137 24.0374 27.5135C24.4516 27.8774 25.0979 28.1724 25.9763 28.3982L26.5599 28.5488C27.2375 28.7245 27.7082 28.9253 27.9717 29.1512C28.2478 29.3646 28.3858 29.6218 28.3858 29.923C28.3858 29.9743 28.383 30.0239 28.3775 30.0719H30.0299ZM23.3665 31.3726V30.7494C23.2592 30.9507 23.2615 31.1877 23.3665 31.3726Z" fill="#EA5932"/>
<path d="M20.0935 23.0868C21.3047 20.7175 23.7694 19.0955 26.613 19.0955C30.6543 19.0955 33.9304 22.3716 33.9304 26.4129C33.9304 27.6105 33.6427 28.741 33.1325 29.7389" stroke="#EA5932" stroke-width="2.43478"/>
</g>
<defs>
<clipPath id="clip0_134_18">
<rect width="54" height="50" fill="white"/>
</clipPath>
</defs>
</svg>
