<svg width="42" height="50" viewBox="0 0 42 50" fill="none" xmlns="http://www.w3.org/2000/svg">
<path d="M5.3999 43.179C5.3999 44.6066 6.19947 46.2721 9.19785 46.2721C13.5197 46.2721 22.9238 46.3514 27.9877 46.2721C30.1865 46.2721 31.3859 45.0824 31.3859 43.179" stroke="#EA5932" stroke-width="2.5" stroke-linecap="round" stroke-linejoin="round"/>
<path d="M8.61621 19.7915V7.17476C8.61621 5.42139 10.0376 4 11.791 4H28.0784C29.0016 4 29.879 4.40183 30.4821 5.10077L37.4292 13.1522C37.9266 13.7287 38.2002 14.4648 38.2002 15.2262V40.0041C38.2002 41.7575 36.7788 43.1788 35.0255 43.1788H11.791C10.0376 43.1788 8.61621 41.7575 8.61621 40.0041V22.7898" stroke="#EA5932" stroke-width="2.5" stroke-linecap="round"/>
<line x1="13.4644" y1="9.54639" x2="21.7585" y2="9.54639" stroke="#EA5932" stroke-width="2.5" stroke-linecap="round"/>
<line x1="13.4644" y1="19.5405" x2="32.5527" y2="19.5405" stroke="#EA5932" stroke-width="2.5" stroke-linecap="round"/>
<line x1="13.4644" y1="12.7446" x2="19.3598" y2="12.7446" stroke="#EA5932" stroke-width="2.5" stroke-linecap="round"/>
<line x1="13.4644" y1="22.7393" x2="32.5527" y2="22.7393" stroke="#EA5932" stroke-width="2.5" stroke-linecap="round"/>
<path d="M29.605 10.9962V4L38.2003 13.9946C36.8011 13.9946 34.4264 13.9759 32.2036 13.9759C30.1373 13.9759 29.605 11.8903 29.605 10.9962Z" stroke="#EA5932" stroke-width="2.5" stroke-linecap="round" stroke-linejoin="round"/>
<rect x="38.6003" y="13.9946" width="0.399784" height="0.799568" fill="#EA5932"/>
<path d="M5.01807 12.3955L5.01807 39.9806" stroke="#EA5932" stroke-width="2.5" stroke-linecap="round" stroke-linejoin="round"/>
<path d="M5.01834 12.1954C4.88508 11.196 5.41812 9.31699 8.6164 9.79673" stroke="#EA5932" stroke-width="2.5" stroke-linecap="round" stroke-linejoin="round"/>
<path d="M5 12.3955L5 39.9806" stroke="#EA5932" stroke-width="2.5" stroke-linecap="round" stroke-linejoin="round"/>
</svg>
