<svg width="42" height="50" viewBox="0 0 42 50" fill="none" xmlns="http://www.w3.org/2000/svg">
<path d="M8.20257 21.0334C8.20257 21.0334 6.61595 34.8207 20.622 34.8207C33.5886 34.8207 32.3302 23.2219 32.4396 21.0334" stroke="#EA5932" stroke-width="2.66004" stroke-miterlimit="10" stroke-linecap="round"/>
<path d="M32.4397 25.9576C35.2847 25.9576 35.8865 24.4257 35.9412 23.0579C36.0506 21.526 35.7224 20.1582 35.1205 20.1582" stroke="#EA5932" stroke-width="2.66004" stroke-miterlimit="10" stroke-linecap="round"/>
<path d="M5.52209 19.1733C5.52209 19.1733 4.04489 19.8299 4.20902 22.1277C4.42786 24.4256 5.41267 25.6293 8.09351 25.6293" stroke="#EA5932" stroke-width="2.66004" stroke-miterlimit="10" stroke-linecap="round"/>
<path d="M29.321 45.9272C29.321 45.9272 36.7071 46.0914 37.5277 45.9272C39.3879 45.599 38.239 43.3558 38.239 43.3558C38.239 43.3558 34.9016 39.7449 28.7739 38.0488" stroke="#EA5932" stroke-width="2.66004" stroke-miterlimit="10" stroke-linecap="round" stroke-linejoin="round"/>
<path d="M9.89875 38.2673C4.20879 40.4558 2.07505 43.7385 2.07505 43.7385C2.07505 43.7385 1.52794 45.7081 3.38812 45.7081C10.4459 45.6533 9.89875 45.6533 10.4459 45.6533" stroke="#EA5932" stroke-width="2.66004" stroke-miterlimit="10" stroke-linecap="round" stroke-linejoin="round"/>
<path d="M31.838 9.21584C29.5402 6.48028 25.601 4.23712 20.3487 4.01827C14.0569 3.74472 10.3913 6.5897 8.31223 9.37997C8.31223 9.37997 6.83502 11.2402 6.28791 13.3739C5.41253 16.1094 5.52196 18.4073 5.52196 18.4073C5.52196 18.4073 5.68609 20.2675 8.14809 20.2675C10.6101 20.2675 10.6101 18.5167 10.6101 17.0395C10.6101 15.5623 11.5402 12.7174 13.1815 13.7569C14.8229 14.7964 18.8715 18.9544 24.1238 19.7751C29.4307 20.5958 35.1754 19.7751 35.1754 19.7751C35.1754 19.7751 35.449 16.8207 33.9718 13.3739" stroke="#EA5932" stroke-width="2.66004" stroke-miterlimit="10" stroke-linecap="round"/>
<path d="M29.2115 37.7205L26.0383 45.9271L20.4578 42.3709L15.3149 45.9819L10.3362 38.1034L13.3453 34.3284L20.4578 42.3709L26.859 34.3284L29.2115 37.7205Z" stroke="#EA5932" stroke-width="2.66004" stroke-miterlimit="10" stroke-linecap="round" stroke-linejoin="round"/>
</svg>
