<svg width="70" height="70" viewBox="0 0 70 70" fill="none" xmlns="http://www.w3.org/2000/svg">
<g clip-path="url(#clip0_491_172)">
<path d="M40.6235 59.0815H40.459L28.3765 59.0342H28.1884L25.2971 68.0433H25.7908L42.9742 68.1143L43.4678 68.1379L40.6235 59.0815Z" fill="#DD6911"/>
<path d="M40.9055 59.9801L27.9063 59.9092L26.8955 63.0778L41.8928 63.1487H41.9398L40.9055 59.9801Z" fill="#EF7909"/>
<path d="M62.908 56.3148L5.95111 56.0784C4.8698 56.0784 4.02356 55.2034 4.02356 54.1157L4.1646 20.5147C4.1646 19.4269 5.03435 18.5757 6.11566 18.5757L63.0725 18.8121C64.1538 18.8121 65 19.687 65 20.7748L64.859 54.3758C64.859 55.4636 63.9893 56.3148 62.908 56.3148Z" fill="#EF7909"/>
<path d="M61.8266 52.2243L7.07937 51.9878C6.8443 51.9878 6.65625 51.7986 6.65625 51.5622L6.77378 21.5789C6.77378 21.3425 6.96184 21.1533 7.19691 21.1533L61.9441 21.3898C62.1792 21.3898 62.3672 21.5789 62.3672 21.8154L62.2497 51.7986C62.2497 52.0351 62.0616 52.2243 61.8266 52.2243Z" fill="#FAFAFA"/>
<path d="M47.3935 69.6749L21.348 69.5567C21.348 68.0906 22.5234 66.9083 23.9808 66.932L44.7607 67.0266C46.2182 67.0266 47.3935 68.2325 47.3935 69.6749Z" fill="#F39200"/>
<path d="M61.9441 24.5584L7.19693 24.3219C6.96186 24.3219 6.7738 24.1327 6.7738 23.8963V21.5789C6.7738 21.3425 6.96186 21.1533 7.19693 21.1533L61.9441 21.3898C62.1792 21.3898 62.3673 21.5789 62.3673 21.8154V24.1327C62.3673 24.3692 62.1792 24.5584 61.9441 24.5584Z" fill="#DADADA"/>
<path d="M56.373 22.856C56.373 23.0925 56.1849 23.3053 55.9264 23.3053C55.6913 23.3053 55.4797 23.1161 55.4797 22.856C55.4797 22.6196 55.6678 22.4067 55.9264 22.4067C56.1614 22.4067 56.373 22.5959 56.373 22.856Z" fill="white"/>
<path d="M61.0508 22.856C61.0508 23.0925 60.8628 23.3053 60.6042 23.3053C60.3692 23.3053 60.1576 23.1161 60.1576 22.856C60.1576 22.6196 60.3456 22.4067 60.6042 22.4067C60.8628 22.4304 61.0508 22.6196 61.0508 22.856Z" fill="white"/>
<path d="M58.7001 22.856C58.7001 23.0925 58.5121 23.3053 58.2535 23.3053C58.0184 23.3053 57.8069 23.1161 57.8069 22.856C57.8069 22.6196 57.9949 22.4067 58.2535 22.4067C58.5121 22.4067 58.7001 22.6196 58.7001 22.856Z" fill="white"/>
<path d="M63.0254 60.0747L5.81002 59.8383C4.82274 59.8383 4 58.7269 4 57.3791L4.02351 50.9946L64.859 51.2547L64.8354 57.6392C64.8354 58.9634 64.0127 60.0747 63.0254 60.0747Z" fill="#F39200"/>
<path d="M36.5569 55.3217C36.5569 56.504 35.5931 57.4734 34.4178 57.4498C33.2424 57.4498 32.2787 56.4803 32.3022 55.298C32.3022 54.1157 33.266 53.1462 34.4413 53.1699C35.6166 53.1699 36.5804 54.1393 36.5569 55.3217Z" stroke="white" stroke-width="0.402698" stroke-miterlimit="10"/>
<g filter="url(#filter0_d_491_172)">
<path d="M13.4812 14.4472L13.4991 14.4453L10.8636 7.5383L11.6289 7.24368L11.6307 7.26157C11.8983 7.93921 12.6556 8.27794 13.3351 8.02818C14.0127 7.76054 14.3515 7.00323 14.1017 6.32377C14.1017 6.32377 14.0999 6.30589 14.082 6.3077L14.9349 5.98611L14.9367 6.004C15.2043 6.68164 15.9617 7.02037 16.6411 6.77061C17.3187 6.50297 17.6575 5.74566 17.4077 5.0662C17.4077 5.0662 17.4059 5.04832 17.388 5.05013L18.2409 4.72854L18.2427 4.74643C18.5104 5.42407 19.2677 5.7628 19.9471 5.51304C20.6248 5.2454 20.9635 4.48809 20.7137 3.80864C20.7137 3.80864 20.7119 3.79075 20.694 3.79256L21.5469 3.47097L21.5487 3.48886C21.8164 4.1665 22.5737 4.50523 23.2531 4.25547C23.9308 3.98783 24.2695 3.23052 24.0197 2.55107C24.0197 2.55107 24.0179 2.53318 24 2.535L24.8529 2.21341L24.8547 2.23129C25.1224 2.90893 25.8797 3.24766 26.5591 2.99791C27.2368 2.73026 27.5755 1.97295 27.3258 1.2935C27.3258 1.2935 27.3239 1.27561 27.3061 1.27743L28.1589 0.955836L28.1608 0.973724C28.4284 1.65136 29.1857 1.99009 29.8652 1.74034C30.5428 1.4727 30.8815 0.715382 30.6318 0.0359279C30.6318 0.0359279 30.63 0.0180399 30.6121 0.0198572L31.465 -0.301733L31.4668 -0.283845C31.7344 0.393792 32.4917 0.732521 33.1712 0.482767C33.8488 0.215126 34.1875 -0.542187 33.9378 -1.22164C33.9378 -1.22164 33.936 -1.23953 33.9181 -1.23771L34.771 -1.5593L34.7728 -1.54141C35.0404 -0.863777 35.7977 -0.525048 36.4772 -0.774802C37.1548 -1.04244 37.4936 -1.79976 37.2438 -2.47921C37.2438 -2.47921 37.242 -2.4971 37.2241 -2.49528L38.077 -2.81687L51.4589 32.1313L54.0926 39.0204L53.3273 39.315L53.3255 39.2971C53.0579 38.6195 52.3006 38.2808 51.6211 38.5305C50.9435 38.7982 50.6047 39.5555 50.8545 40.2349C50.8545 40.2349 50.8563 40.2528 50.8742 40.251L50.0213 40.5726L50.0195 40.5547C49.7519 39.8771 48.9946 39.5383 48.3151 39.7881C47.6375 40.0557 47.2987 40.813 47.5485 41.4925C47.5485 41.4925 47.5503 41.5104 47.5682 41.5086L46.7153 41.8302L46.7135 41.8123C46.4459 41.1346 45.6885 40.7959 45.0091 41.0457C44.3315 41.3133 43.9927 42.0706 44.2425 42.7501C44.2425 42.7501 44.2443 42.7679 44.2622 42.7661L43.4093 43.0877L43.4075 43.0698C43.1398 42.3922 42.3825 42.0535 41.7031 42.3032C41.0254 42.5709 40.6867 43.3282 40.9365 44.0076C40.9365 44.0076 40.9383 44.0255 40.9562 44.0237L40.1033 44.3453L40.1015 44.3274C39.8338 43.6498 39.0765 43.311 38.3971 43.5608C37.7194 43.8284 37.3807 44.5857 37.6304 45.2652C37.6304 45.2652 37.6323 45.2831 37.6501 45.2813L36.7973 45.6029L36.7955 45.585C36.5278 44.9073 35.7705 44.5686 35.091 44.8184C34.4134 45.086 34.0747 45.8433 34.3244 46.5228C34.3244 46.5228 34.3262 46.5407 34.3441 46.5388L33.4913 46.8604L33.4894 46.8425C33.2218 46.1649 32.4645 45.8262 31.785 46.0759C31.1074 46.3436 30.7687 47.1009 31.0184 47.7803C31.0184 47.7803 31.0202 47.7982 31.0381 47.7964L30.1852 48.118L30.1834 48.1001C29.9158 47.4225 29.1585 47.0837 28.479 47.3335C27.8014 47.6011 27.4627 48.3585 27.7124 49.0379C27.7124 49.0379 27.7142 49.0558 27.7321 49.054L26.8792 49.3756L13.4812 14.4472Z" fill="#FDFFFB"/>
</g>
<path d="M38.1548 7.15161L18.2938 15.1587L18.6165 15.9591L38.4775 7.95205L38.1548 7.15161Z" fill="#707070"/>
<path d="M44.8143 23.7039L24.9534 31.7109L25.2761 32.5114L45.137 24.5043L44.8143 23.7039Z" fill="#707070"/>
<path d="M40.1739 28.1868L30.9021 31.9248L31.2248 32.7252L40.4966 28.9873L40.1739 28.1868Z" fill="#707070"/>
<path d="M31.2743 15.2814L20.1515 19.7656L20.4742 20.5661L31.597 16.0818L31.2743 15.2814Z" fill="#DADADA"/>
<path d="M24.8923 20.275L20.9901 21.8481L21.3128 22.6486L25.215 21.0754L24.8923 20.275Z" fill="#DADADA"/>
<path d="M29.6903 20.752L21.8193 23.9253L22.142 24.7257L30.013 21.5525L29.6903 20.752Z" fill="#DADADA"/>
<path d="M33.7839 21.5382L22.6611 26.0225L22.9838 26.8229L34.1066 22.3387L33.7839 21.5382Z" fill="#DADADA"/>
<path d="M28.2114 26.1915L23.5088 28.0874L23.8315 28.8878L28.5341 26.992L28.2114 26.1915Z" fill="#DADADA"/>
<path d="M39.874 11.8203L35.2548 13.6826L35.5775 14.4831L40.1967 12.6208L39.874 11.8203Z" fill="#DADADA"/>
<path d="M40.7005 13.897L36.0813 15.7593L36.404 16.5597L41.0232 14.6974L40.7005 13.897Z" fill="#DADADA"/>
<path d="M41.5505 15.9844L36.9313 17.8467L37.254 18.6471L41.8732 16.7849L41.5505 15.9844Z" fill="#DADADA"/>
<path d="M42.377 18.0611L37.7578 19.9233L38.0805 20.7238L42.6997 18.8615L42.377 18.0611Z" fill="#DADADA"/>
<path d="M43.2269 20.1475L38.6077 22.0098L38.9304 22.8102L43.5496 20.9479L43.2269 20.1475Z" fill="#DADADA"/>
<path d="M27.9708 38.4412L27.6373 38.5757L29.7618 43.8453L30.0953 43.7108L27.9708 38.4412Z" fill="#707070"/>
<path d="M28.7003 38.157L28.3668 38.2915L30.4913 43.5611L30.8248 43.4266L28.7003 38.157Z" fill="#707070"/>
<path d="M30.3934 37.4679L30.2267 37.5352L32.3512 42.8047L32.5179 42.7375L30.3934 37.4679Z" fill="#707070"/>
<path d="M30.9451 37.2414L30.7783 37.3086L32.9028 42.5782L33.0695 42.5109L30.9451 37.2414Z" fill="#707070"/>
<path d="M29.9673 37.6409L29.1335 37.9771L31.258 43.2466L32.0918 42.9105L29.9673 37.6409Z" fill="#707070"/>
<path d="M32.1758 36.7434L31.342 37.0796L33.4665 42.3492L34.3003 42.013L32.1758 36.7434Z" fill="#707070"/>
<path d="M32.6737 36.5569L32.3402 36.6914L34.4647 41.961L34.7982 41.8265L32.6737 36.5569Z" fill="#707070"/>
<path d="M33.4132 36.2498L33.0797 36.3843L35.2042 41.6539L35.5377 41.5194L33.4132 36.2498Z" fill="#707070"/>
<path d="M37.5397 34.5804L37.2062 34.7148L39.3306 39.9844L39.6642 39.85L37.5397 34.5804Z" fill="#707070"/>
<path d="M38.2857 34.2899L37.9521 34.4243L40.0766 39.6939L40.4101 39.5594L38.2857 34.2899Z" fill="#707070"/>
<path d="M35.0961 35.5836L34.9293 35.6509L37.0538 40.9205L37.2205 40.8532L35.0961 35.5836Z" fill="#707070"/>
<path d="M35.6644 35.3507L35.4977 35.418L37.6221 40.6875L37.7889 40.6203L35.6644 35.3507Z" fill="#707070"/>
<path d="M34.661 35.7421L33.8271 36.0781L35.951 41.3478L36.7849 41.0117L34.661 35.7421Z" fill="#707070"/>
<path d="M36.8956 34.8528L36.0618 35.189L38.1862 40.4585L39.02 40.1224L36.8956 34.8528Z" fill="#707070"/>
<path d="M20.2564 10.3246L21.0945 9.98496C21.2745 9.91198 21.439 9.87688 21.588 9.87968C21.7369 9.88248 21.8665 9.92341 21.9769 10.0025C22.0879 10.08 22.1748 10.1963 22.2377 10.3515C22.2856 10.4697 22.3061 10.5826 22.2992 10.6903C22.2923 10.7979 22.2618 10.8987 22.2077 10.9926C22.1531 11.0855 22.0778 11.1709 21.9819 11.249L21.8826 11.3593L21.1292 11.6647L20.9947 11.3421L21.5593 11.1133C21.657 11.0737 21.7313 11.0234 21.7823 10.9623C21.8334 10.9012 21.863 10.8342 21.8714 10.7614C21.8804 10.687 21.8695 10.6118 21.8388 10.5359C21.8053 10.4534 21.76 10.3884 21.7029 10.3409C21.6464 10.2918 21.5784 10.2644 21.499 10.2586C21.4192 10.2518 21.3283 10.2691 21.2264 10.3104L20.7968 10.4845L21.6251 12.5284L21.2167 12.6939L20.2564 10.3246ZM22.569 12.1459L21.5811 11.3072L22.0084 11.1321L22.9965 11.948L23.0051 11.9691L22.569 12.1459ZM24.7354 10.8908L24.8667 11.2146L23.6088 11.7244L23.4775 11.4006L24.7354 10.8908ZM22.7641 9.30829L23.7243 11.6776L23.3159 11.8431L22.3556 9.47383L22.7641 9.30829ZM24.143 9.90129L24.2723 10.2202L23.1788 10.6634L23.0495 10.3445L24.143 9.90129ZM23.8983 8.84859L24.0302 9.17405L22.7804 9.68057L22.6485 9.35511L23.8983 8.84859ZM26.2871 9.74089L26.6939 9.576C26.7438 9.73641 26.7565 9.89232 26.7319 10.0437C26.707 10.194 26.6418 10.331 26.5365 10.4545C26.4312 10.578 26.2831 10.6784 26.0922 10.7558C25.9457 10.8152 25.8034 10.8426 25.6651 10.838C25.5264 10.8323 25.3957 10.7981 25.273 10.7354C25.1499 10.6716 25.0382 10.5799 24.9379 10.4601C24.8387 10.3399 24.7545 10.1947 24.6855 10.0244L24.6057 9.82745C24.5367 9.65713 24.4965 9.49407 24.4851 9.33827C24.4748 9.18202 24.4922 9.03793 24.5373 8.906C24.5819 8.77298 24.6528 8.65648 24.7499 8.55648C24.8481 8.45604 24.9716 8.3757 25.1202 8.31546C25.3089 8.23896 25.4825 8.20904 25.6408 8.22571C25.7991 8.24238 25.9389 8.29749 26.0602 8.39106C26.1826 8.48419 26.284 8.60665 26.3645 8.75845L25.9577 8.92333C25.9055 8.82575 25.8462 8.74809 25.7799 8.69036C25.7146 8.63218 25.639 8.5984 25.5531 8.58901C25.4668 8.57853 25.3667 8.59638 25.2528 8.64255C25.1595 8.68036 25.0851 8.73069 25.0298 8.79355C24.9744 8.8564 24.937 8.93092 24.9176 9.01708C24.8983 9.10325 24.8966 9.20053 24.9128 9.30893C24.9296 9.4158 24.9635 9.53215 25.0145 9.658L25.0956 9.85815C25.144 9.97749 25.1982 10.0818 25.2584 10.1711C25.3192 10.2588 25.3854 10.3286 25.457 10.3805C25.5296 10.4319 25.6078 10.4627 25.6915 10.473C25.7752 10.4833 25.8648 10.469 25.9603 10.4304C26.0764 10.3833 26.1627 10.3268 26.2194 10.2609C26.2771 10.1946 26.3101 10.1187 26.3184 10.0332C26.3274 9.94623 26.317 9.84878 26.2871 9.74089ZM26.8534 7.65089L27.8137 10.0202L27.4052 10.1857L26.445 7.81643L26.8534 7.65089ZM28.7759 8.38358L28.1722 8.62826L28.0483 8.33179L28.5755 8.1181C28.6645 8.08205 28.7346 8.03847 28.7859 7.98737C28.8378 7.93475 28.8699 7.87689 28.8822 7.8138C28.8941 7.74962 28.8855 7.68173 28.8565 7.61013C28.8244 7.53093 28.7831 7.47254 28.7325 7.43495C28.6819 7.39736 28.6205 7.37992 28.5483 7.38264C28.4773 7.38492 28.3935 7.40563 28.2969 7.44476L27.9015 7.60503L28.7298 9.64889L28.3214 9.81443L27.3611 7.44511L28.165 7.1193C28.2952 7.06654 28.4163 7.03197 28.5284 7.01559C28.6416 6.99877 28.7447 7.00243 28.8379 7.02657C28.9317 7.04919 29.0133 7.09316 29.0827 7.15849C29.1532 7.22338 29.2109 7.31115 29.2557 7.4218C29.2953 7.51944 29.3083 7.6184 29.2946 7.71867C29.2805 7.81785 29.2382 7.91141 29.1677 7.99933C29.0973 8.08725 28.9962 8.16357 28.8646 8.2283L28.7759 8.38358ZM29.192 9.46158L28.4776 9.75112L28.5303 9.35276L29.0607 9.13776C29.153 9.10038 29.2238 9.05398 29.2734 8.99854C29.3224 8.94201 29.3512 8.88048 29.3596 8.81392C29.3686 8.74584 29.3582 8.67492 29.3283 8.60115C29.2971 8.52413 29.2565 8.4629 29.2065 8.41748C29.1561 8.37098 29.0954 8.34441 29.0245 8.33778C28.9532 8.33006 28.8703 8.34533 28.7759 8.38358L28.317 8.56957L28.1996 8.27045L28.7968 8.02841L28.9351 8.1031C29.067 8.05467 29.1855 8.04011 29.2906 8.05941C29.3968 8.07828 29.4876 8.12166 29.5631 8.18957C29.6386 8.25748 29.6962 8.34026 29.7358 8.43789C29.7969 8.58869 29.815 8.72848 29.7902 8.85728C29.7664 8.98564 29.704 9.10124 29.603 9.20408C29.5015 9.30584 29.3645 9.39167 29.192 9.46158ZM31.8099 6.94553L31.8626 7.07572C31.9352 7.25472 31.9769 7.42473 31.9879 7.58575C31.9988 7.74677 31.9811 7.89478 31.9348 8.02976C31.8895 8.1643 31.8175 8.28255 31.7186 8.38451C31.6193 8.48539 31.4964 8.56551 31.3499 8.62487C31.2046 8.68379 31.0611 8.71161 30.9196 8.70834C30.7787 8.70355 30.6441 8.66906 30.5158 8.60487C30.3875 8.54068 30.2701 8.44741 30.1637 8.32508C30.0584 8.20232 29.9694 8.05143 29.8969 7.87243L29.8441 7.74225C29.7716 7.56325 29.7306 7.39356 29.7211 7.23318C29.7113 7.07172 29.7295 6.9235 29.7758 6.78851C29.8228 6.65201 29.8954 6.53354 29.9937 6.4331C30.0925 6.33113 30.2147 6.25069 30.36 6.19178C30.5065 6.13242 30.6507 6.10491 30.7927 6.10927C30.9342 6.11254 31.0688 6.14703 31.1965 6.21274C31.3237 6.27738 31.4394 6.3713 31.5437 6.4945C31.6486 6.61619 31.7373 6.76653 31.8099 6.94553ZM31.4542 7.24126L31.4001 7.10782C31.3464 6.97547 31.2862 6.86412 31.2192 6.77378C31.153 6.68192 31.081 6.61193 31.0034 6.56381C30.9264 6.51416 30.8451 6.48649 30.7595 6.4808C30.6734 6.47402 30.5853 6.48887 30.4952 6.52537C30.4052 6.56186 30.3322 6.6123 30.2762 6.67668C30.2197 6.73997 30.1806 6.81645 30.1588 6.90611C30.1377 6.99424 30.1348 7.09457 30.1501 7.2071C30.165 7.31854 30.1992 7.44044 30.2529 7.57279L30.3069 7.70623C30.3606 7.83858 30.4211 7.95047 30.4885 8.04189C30.5558 8.13332 30.6287 8.20417 30.7072 8.25446C30.7864 8.30323 30.8684 8.33122 30.9535 8.33844C31.038 8.34458 31.1254 8.3294 31.2154 8.2929C31.3065 8.25597 31.3803 8.20586 31.4368 8.14256C31.4928 8.07818 31.5311 8.00138 31.5518 7.91217C31.572 7.82186 31.574 7.72067 31.5576 7.60858C31.5423 7.49605 31.5078 7.37361 31.4542 7.24126Z" fill="#686666"/>
</g>
<defs>
<filter id="filter0_d_491_172" x="9.94812" y="-2.81689" width="45.0601" height="54.0234" filterUnits="userSpaceOnUse" color-interpolation-filters="sRGB">
<feFlood flood-opacity="0" result="BackgroundImageFix"/>
<feColorMatrix in="SourceAlpha" type="matrix" values="0 0 0 0 0 0 0 0 0 0 0 0 0 0 0 0 0 0 127 0" result="hardAlpha"/>
<feOffset dy="0.915526"/>
<feGaussianBlur stdDeviation="0.457763"/>
<feComposite in2="hardAlpha" operator="out"/>
<feColorMatrix type="matrix" values="0 0 0 0 0 0 0 0 0 0 0 0 0 0 0 0 0 0 0.15 0"/>
<feBlend mode="normal" in2="BackgroundImageFix" result="effect1_dropShadow_491_172"/>
<feBlend mode="normal" in="SourceGraphic" in2="effect1_dropShadow_491_172" result="shape"/>
</filter>
<clipPath id="clip0_491_172">
<rect width="70" height="70" fill="white"/>
</clipPath>
</defs>
</svg>
