<svg width="79" height="46" viewBox="0 0 79 46" fill="none" xmlns="http://www.w3.org/2000/svg">
<g clip-path="url(#clip0_108_70)">
<path d="M6.73913 36.6955H6.43478C5.09009 36.6955 4 35.6054 4 34.2607V9.30416C4 7.95947 5.09009 6.86938 6.43478 6.86938H67.3043C68.649 6.86938 69.7391 7.95947 69.7391 9.30417V34.2607C69.7391 35.6054 68.649 36.6955 67.3043 36.6955H54.5217" stroke="#00335E" stroke-width="2.43478"/>
<path d="M8.26099 6.56522V4.43478C8.26099 3.09009 9.35108 2 10.6958 2H57.8697M70.0436 31.8261H71.5653C72.91 31.8261 74.0001 30.736 74.0001 29.3913V4.43478C74.0001 3.09009 72.91 2 71.5653 2H65.9349" stroke="#00335E" stroke-width="2.43478" stroke-linecap="round"/>
<path d="M18.913 23.3043C25.4684 23.3043 30.7826 21.6692 30.7826 19.6522C30.7826 17.6351 25.4684 16 18.913 16C12.3576 16 7.04346 17.6351 7.04346 19.6522C7.04346 21.6692 12.3576 23.3043 18.913 23.3043Z" stroke="#00335E" stroke-width="2.43478" stroke-miterlimit="10" stroke-linejoin="round"/>
<path d="M42.6523 33.652C49.2077 33.652 54.5218 32.0169 54.5218 29.9998C54.5218 27.9828 49.2077 26.3477 42.6523 26.3477C36.0969 26.3477 30.7827 27.9828 30.7827 29.9998C30.7827 32.0169 36.0969 33.652 42.6523 33.652Z" stroke="#00335E" stroke-width="2.43478" stroke-miterlimit="10" stroke-linejoin="round"/>
<path d="M7.04346 19.6521V25.3815C7.04346 25.3815 9.269 28.7825 19.1603 28.7825C29.0516 28.7825 30.7826 24.9305 30.7826 24.9305V19.6521" stroke="#00335E" stroke-width="2.43478" stroke-miterlimit="10" stroke-linejoin="round"/>
<path d="M30.7827 30V35.7294C30.7827 35.7294 33.0083 39.1304 42.8996 39.1304C52.7909 39.1304 54.5218 35.2784 54.5218 35.2784V30" stroke="#00335E" stroke-width="2.43478" stroke-miterlimit="10" stroke-linejoin="round"/>
<path d="M7.04346 25.1304V30.8598C7.04346 30.8598 9.269 34.2608 19.1603 34.2608C29.0516 34.2608 30.7826 30.4088 30.7826 30.4088V25.1304" stroke="#00335E" stroke-width="2.43478" stroke-miterlimit="10" stroke-linejoin="round"/>
<path d="M30.7827 35.4783V41.2077C30.7827 41.2077 33.0083 44.6087 42.8996 44.6087C52.7909 44.6087 54.5218 40.7567 54.5218 40.7567V35.4783" stroke="#00335E" stroke-width="2.43478" stroke-miterlimit="10" stroke-linejoin="round"/>
<path d="M7.04346 30.6086V36.338C7.04346 36.338 9.269 39.7391 19.1603 39.7391C29.0516 39.7391 30.7826 35.8871 30.7826 35.8871V30.6086" stroke="#00335E" stroke-width="2.43478" stroke-miterlimit="10" stroke-linejoin="round"/>
<path d="M7.04346 36.0869V41.8163C7.04346 41.8163 9.269 45.2173 19.1603 45.2173C29.0516 45.2173 30.7826 41.3653 30.7826 41.3653V36.0869" stroke="#00335E" stroke-width="2.43478" stroke-miterlimit="10" stroke-linejoin="round"/>
<path d="M38.0869 16L38.0869 26.3478" stroke="#00335E" stroke-width="1.82609" stroke-linecap="round"/>
<path fill-rule="evenodd" clip-rule="evenodd" d="M42.4725 26.8045C42.4839 26.6872 42.4896 26.5674 42.4896 26.4452C42.4896 25.8079 42.3518 25.2653 42.0762 24.8174C41.8006 24.3524 41.3613 23.9562 40.7585 23.6289C40.1728 23.3017 39.3891 23.0088 38.4073 22.7505L37.6063 22.5438C36.9001 22.3543 36.4006 22.1648 36.1078 21.9754C35.8322 21.7687 35.6944 21.4845 35.6944 21.1227C35.6944 20.7093 35.8666 20.3821 36.2111 20.1409C36.5729 19.8825 37.0638 19.7534 37.6839 19.7534C38.2695 19.7534 38.8207 19.8309 39.3374 19.9859C39.6467 20.0684 39.9898 20.194 40.3669 20.3628C40.8234 20.5672 41.37 20.4157 41.6189 19.9819C41.8719 19.541 41.7234 18.9728 41.261 18.7616C40.7973 18.5497 40.3369 18.3894 39.88 18.2806C39.1738 18.0912 38.4331 17.9964 37.658 17.9964C36.8485 17.9964 36.1164 18.1342 35.4619 18.4098C34.8245 18.6854 34.325 19.073 33.9633 19.5725C33.6016 20.0548 33.4207 20.6146 33.4207 21.2519C33.4207 22.0959 33.6963 22.7763 34.2475 23.2931C34.8159 23.7926 35.703 24.1974 36.9087 24.5074L37.7097 24.7141C38.6398 24.9552 39.2858 25.2308 39.6475 25.5409C40.0264 25.8337 40.2159 26.1868 40.2159 26.6002C40.2159 26.6706 40.2121 26.7387 40.2044 26.8045H42.4725ZM33.3268 28.5902V27.7341C33.1792 28.0107 33.1825 28.3363 33.3268 28.5902Z" fill="#00335E"/>
<path d="M28.8342 17.2173C30.4966 13.9653 33.8796 11.739 37.7826 11.739C43.3294 11.739 47.8261 16.2356 47.8261 21.7825C47.8261 23.4264 47.4311 24.978 46.7309 26.3477" stroke="#00335E" stroke-width="2.43478"/>
</g>
<defs>
<clipPath id="clip0_108_70">
<rect width="79" height="46" fill="white"/>
</clipPath>
</defs>
</svg>
